<?xml version="1.0" standalone="no"?>
<!DOCTYPE svg PUBLIC "-//W3C//DTD SVG 20010904//EN"
 "http://www.w3.org/TR/2001/REC-SVG-20010904/DTD/svg10.dtd">
<svg version="1.0" xmlns="http://www.w3.org/2000/svg"
 width="1024.000000pt" height="1024.000000pt" viewBox="0 0 1024.000000 1024.000000"
 preserveAspectRatio="xMidYMid meet">
<metadata>
Created by potrace 1.11, written by Peter Selinger 2001-2013
</metadata>
<g transform="translate(0.000000,1024.000000) scale(0.100000,-0.100000)"
fill="#000000" stroke="none">
<path d="M5 10228 c-3 -7 -4 -2310 -3 -5118 l3 -5105 5115 0 5115 0 0 5115 0
5115 -5113 3 c-4085 2 -5114 0 -5117 -10z m3885 -2998 l0 -200 -170 0 -170 0
0 200 0 200 170 0 170 0 0 -200z m1362 16 c225 -48 374 -223 438 -514 31 -141
44 -355 32 -518 -23 -300 -82 -470 -209 -605 -106 -112 -223 -159 -403 -159
-345 0 -550 230 -599 673 -22 193 -8 492 29 639 69 273 224 443 445 488 65 13
195 11 267 -4z m1478 0 c47 -7 136 -30 198 -51 l112 -37 0 -170 0 -170 -22 14
c-95 61 -202 108 -296 129 -71 16 -210 13 -262 -6 -106 -38 -157 -142 -116
-239 27 -64 96 -107 286 -178 198 -74 288 -123 366 -202 102 -103 144 -210
144 -366 0 -260 -124 -428 -365 -495 -84 -23 -332 -32 -433 -15 -94 16 -208
49 -284 83 l-58 26 0 175 c0 97 3 176 6 176 3 0 24 -13 47 -29 71 -48 202
-110 284 -133 92 -26 246 -30 306 -9 82 28 146 114 147 195 0 118 -65 193
-215 251 -441 168 -538 246 -575 465 -34 202 40 398 189 498 140 93 324 123
541 88z m-2840 -981 l0 -525 215 0 215 0 0 -130 0 -130 -600 0 -600 0 0 130 0
130 213 2 212 3 0 390 0 390 -167 3 -168 2 0 130 0 130 340 0 340 0 0 -525z
m3220 -1475 l0 -130 -155 0 c-231 0 -245 -10 -245 -166 l0 -84 200 0 200 0 0
-130 0 -130 -200 0 -200 0 0 -525 0 -525 -175 0 -175 0 0 525 0 525 -160 0
-160 0 0 130 0 130 160 0 160 0 0 64 c0 269 74 390 263 431 40 9 136 14 275
14 l212 1 0 -130z m-3245 36 c234 -54 337 -165 365 -391 33 -265 -83 -462
-293 -500 l-37 -7 40 -20 c22 -11 54 -39 70 -61 27 -36 380 -726 380 -741 0
-4 -84 -6 -188 -6 l-187 0 -125 262 c-187 393 -210 420 -357 427 l-83 3 0
-346 0 -346 -170 0 -170 0 0 876 0 876 343 -5 c267 -3 357 -8 412 -21z m1434
-401 c216 -51 366 -208 416 -436 10 -45 17 -129 18 -210 l2 -134 -442 -3 -443
-2 0 -28 c0 -65 31 -136 80 -183 70 -68 124 -84 285 -84 153 1 241 21 379 89
l86 42 0 -157 0 -156 -94 -32 c-144 -47 -273 -64 -445 -58 -91 3 -169 12 -206
22 -211 59 -353 206 -412 425 -25 92 -25 368 0 460 61 229 221 395 429 446 75
18 269 17 347 -1z"/>
<path d="M5035 6936 c-71 -31 -122 -115 -152 -248 -22 -95 -25 -536 -5 -643
38 -199 107 -285 232 -285 134 0 204 92 241 315 19 119 17 466 -5 585 -18 100
-52 189 -89 229 -50 54 -155 76 -222 47z"/>
<path d="M3450 4320 l0 -243 133 5 c143 5 190 18 240 66 63 60 75 228 23 316
-41 70 -91 88 -258 94 l-138 5 0 -243z"/>
<path d="M5059 4174 c-15 -3 -51 -20 -80 -37 -45 -27 -59 -43 -86 -97 -17 -36
-34 -82 -38 -102 l-6 -38 271 0 270 0 0 28 c0 91 -61 190 -137 224 -43 19
-145 30 -194 22z"/>
</g>
</svg>
