<?xml version="1.0" standalone="no"?>
<!DOCTYPE svg PUBLIC "-//W3C//DTD SVG 20010904//EN"
 "http://www.w3.org/TR/2001/REC-SVG-20010904/DTD/svg10.dtd">
<svg version="1.0" xmlns="http://www.w3.org/2000/svg"
 width="1024.000000pt" height="1024.000000pt" viewBox="0 0 1024.000000 1024.000000"
 preserveAspectRatio="xMidYMid meet">
<metadata>
Created by potrace 1.11, written by Peter Selinger 2001-2013
</metadata>
<g transform="translate(0.000000,1024.000000) scale(0.100000,-0.100000)"
fill="#000000" stroke="none">
<path d="M0 10229 c0 -5 5 -7 10 -4 5 3 10 8 10 11 0 2 -4 4 -10 4 -5 0 -10
-5 -10 -11z"/>
<path d="M10225 10230 c3 -5 8 -10 11 -10 2 0 4 5 4 10 0 6 -5 10 -11 10 -5 0
-7 -4 -4 -10z"/>
<path d="M3578 9630 c-176 -25 -297 -109 -343 -240 -42 -118 -27 -241 47 -383
22 -43 39 -79 37 -81 -155 -117 -204 -169 -254 -271 -47 -95 -65 -172 -65
-280 0 -184 63 -318 199 -426 127 -101 324 -141 513 -105 77 15 119 30 206 74
l54 27 16 -24 c44 -65 31 -62 225 -59 l177 3 -90 138 c-49 76 -90 142 -90 146
0 4 12 23 26 42 83 111 134 291 134 475 l0 64 -132 0 -133 0 -1 -123 c0 -96
-4 -132 -20 -172 -11 -27 -24 -50 -28 -50 -13 0 -439 656 -478 735 -42 86 -49
157 -19 199 54 76 250 79 408 6 31 -14 57 -25 59 -25 2 0 4 65 4 144 0 129 -2
145 -17 150 -114 35 -318 52 -435 36z m76 -1195 l177 -270 -63 -30 c-83 -39
-198 -42 -268 -8 -65 32 -128 97 -159 162 -22 48 -26 69 -26 151 0 84 4 101
27 146 28 54 116 140 129 127 3 -5 86 -129 183 -278z"/>
<path d="M220 9460 l0 -150 380 0 c209 0 380 -3 380 -6 0 -3 -176 -264 -390
-580 l-390 -575 0 -144 0 -145 610 0 610 0 0 150 0 150 -415 2 -414 3 404 579
405 579 0 144 0 143 -590 0 -590 0 0 -150z"/>
<path d="M1660 8735 l0 -875 198 0 c424 0 609 44 756 181 150 139 216 352 216
694 0 340 -66 554 -212 691 -150 140 -332 184 -765 184 l-193 0 0 -875z m592
540 c65 -23 140 -93 167 -154 46 -107 55 -174 55 -386 0 -156 -4 -215 -17
-270 -37 -147 -87 -218 -187 -264 -45 -20 -75 -26 -162 -29 l-108 -5 0 568 0
568 103 -6 c57 -3 123 -12 149 -22z"/>
<path d="M4550 8735 l0 -875 198 0 c424 0 609 44 756 181 150 139 216 352 216
694 0 340 -66 554 -212 691 -150 140 -332 184 -765 184 l-193 0 0 -875z m592
540 c65 -23 140 -93 167 -154 46 -107 55 -174 55 -386 0 -156 -4 -215 -17
-270 -37 -147 -87 -218 -187 -264 -45 -20 -75 -26 -162 -29 l-108 -5 0 568 0
568 103 -6 c57 -3 123 -12 149 -22z"/>
<path d="M6030 8736 l0 -876 170 0 170 0 0 329 0 328 173 5 c113 4 198 11 247
23 281 66 403 242 387 560 -14 282 -128 418 -400 477 -78 17 -142 21 -419 25
l-328 5 0 -876z m665 560 c92 -40 129 -108 129 -237 -1 -71 -5 -95 -25 -135
-44 -90 -111 -116 -299 -118 l-125 -1 -3 259 -2 258 142 -4 c106 -3 153 -9
183 -22z"/>
<path d="M7587 8843 c-114 -423 -220 -816 -236 -876 l-30 -107 171 2 170 3 44
180 c25 99 49 197 55 218 l10 37 232 -2 232 -3 53 -217 54 -218 169 0 c93 0
169 3 169 8 0 4 -106 396 -234 872 l-234 865 -209 3 -209 2 -207 -767z m502
82 c43 -187 76 -343 74 -347 -2 -5 -76 -8 -164 -8 -120 0 -159 3 -159 13 0 15
149 676 157 697 8 19 -3 60 92 -355z"/>
<path d="M8832 9158 c3 -7 96 -302 208 -656 l204 -642 209 2 210 3 83 260 c45
143 138 437 207 653 l124 392 -171 0 -171 0 -140 -510 c-77 -280 -142 -506
-146 -502 -3 4 -63 216 -132 472 -70 256 -132 482 -138 503 l-10 37 -171 0
c-132 0 -169 -3 -166 -12z"/>
<path d="M3550 7230 l0 -200 170 0 170 0 0 200 0 200 -170 0 -170 0 0 -200z"/>
<path d="M2095 7250 c-134 -22 -234 -70 -312 -153 -90 -95 -125 -193 -125
-345 1 -264 98 -368 486 -519 172 -67 203 -83 243 -125 43 -44 63 -96 63 -160
-1 -131 -82 -204 -241 -215 -157 -12 -333 46 -521 171 l-28 18 0 -175 0 -176
48 -21 c60 -27 180 -65 257 -82 37 -8 124 -12 225 -12 135 1 179 4 242 22 251
69 364 222 361 492 -1 179 -50 295 -165 392 -75 63 -139 96 -336 173 -261 101
-307 141 -300 260 5 79 32 119 107 154 49 23 68 26 156 26 75 -1 119 -7 175
-24 76 -23 193 -78 243 -113 l27 -19 0 165 0 166 -37 15 c-173 73 -415 108
-568 85z"/>
<path d="M4985 7250 c-320 -64 -484 -366 -485 -892 0 -487 133 -776 405 -878
75 -28 245 -38 337 -21 191 37 343 181 412 390 102 306 95 774 -13 1046 -78
194 -210 312 -389 351 -72 15 -202 17 -267 4z m210 -319 c121 -56 168 -216
169 -571 0 -294 -29 -445 -101 -529 -44 -52 -85 -71 -153 -71 -185 0 -257 189
-247 645 6 235 18 316 60 408 56 121 164 168 272 118z"/>
<path d="M6413 7249 c-289 -48 -458 -287 -413 -583 34 -222 132 -303 575 -471
79 -30 108 -48 145 -84 69 -70 89 -164 51 -246 -45 -96 -112 -130 -256 -129
-152 1 -315 55 -461 154 -25 16 -47 30 -50 30 -2 0 -4 -79 -4 -175 l0 -174 28
-15 c61 -31 208 -77 299 -92 119 -20 355 -14 448 11 241 67 365 235 365 495 0
222 -105 384 -313 484 -50 25 -139 62 -197 84 -190 71 -259 114 -286 178 -41
97 10 201 116 239 53 19 191 22 264 5 72 -16 194 -66 256 -105 l55 -34 3 162
c2 137 0 164 -13 173 -28 21 -199 73 -289 89 -95 16 -239 18 -323 4z"/>
<path d="M7800 7250 c-80 -10 -164 -29 -272 -62 l-68 -20 0 -158 0 -159 43 24
c132 73 308 120 426 113 160 -10 244 -96 243 -251 0 -61 -5 -80 -41 -151 -48
-97 -96 -154 -444 -525 l-267 -284 0 -149 0 -148 550 0 550 0 0 150 0 150
-367 2 -368 3 281 285 c339 345 403 430 439 582 66 280 -82 515 -366 583 -82
19 -243 26 -339 15z"/>
<path d="M8960 6744 c0 -459 1 -486 18 -479 75 32 191 65 263 73 201 25 351
-38 410 -171 28 -64 32 -190 7 -248 -25 -57 -88 -120 -145 -145 -135 -60 -361
-47 -555 31 l-58 24 0 -153 0 -153 63 -17 c210 -55 405 -70 562 -41 350 63
539 349 470 712 -63 334 -392 523 -743 427 l-23 -6 3 163 3 164 333 3 332 2 0
150 0 150 -470 0 -470 0 0 -486z"/>
<path d="M520 6806 c-186 -52 -301 -217 -340 -491 -14 -102 -12 -286 5 -390
28 -172 79 -279 175 -368 85 -79 146 -101 280 -101 91 0 111 3 155 24 49 24
129 96 172 155 l22 30 0 -342 1 -343 170 0 170 0 0 905 0 905 -170 0 -169 0
-3 -97 -3 -98 -18 33 c-25 46 -85 111 -128 138 -81 51 -218 68 -319 40z m332
-294 c79 -49 126 -167 135 -332 12 -223 -54 -391 -172 -436 -132 -50 -250 41
-291 225 -24 107 -15 312 17 399 24 65 74 133 112 154 57 30 140 26 199 -10z"/>
<path d="M3210 6660 l0 -130 168 -2 167 -3 0 -390 0 -390 -212 -3 -213 -2 0
-130 0 -130 600 0 600 0 0 130 0 130 -215 0 -215 0 0 525 0 525 -340 0 -340 0
0 -130z"/>
<path d="M2347 4904 c-91 -16 -164 -51 -200 -94 -15 -17 -36 -61 -48 -98 -19
-58 -22 -101 -29 -337 -5 -182 -12 -283 -21 -309 -31 -91 -118 -136 -261 -136
l-78 0 0 -109 0 -108 85 -6 c112 -8 162 -24 205 -67 56 -56 62 -86 70 -385 6
-229 11 -279 27 -332 52 -159 139 -199 456 -210 l177 -6 0 111 0 112 -97 0
c-155 0 -208 24 -233 106 -7 22 -15 155 -20 304 -9 300 -15 331 -80 395 -27
26 -60 45 -107 60 l-68 22 55 16 c70 21 111 47 142 89 46 60 50 90 59 373 4
149 12 286 18 306 23 77 75 99 228 99 l103 0 0 110 0 110 -152 -1 c-84 0 -188
-7 -231 -15z"/>
<path d="M6624 4905 c-184 -40 -246 -132 -261 -382 l-6 -113 -159 0 -158 0 0
-130 0 -130 160 0 160 0 0 -525 0 -525 175 0 175 0 0 525 0 525 200 0 200 0 0
130 0 130 -200 0 -200 0 0 84 c0 156 14 166 245 166 l155 0 0 130 0 130 -212
-1 c-137 0 -235 -5 -274 -14z"/>
<path d="M7796 4844 c-180 -43 -313 -187 -362 -390 -26 -103 -23 -314 5 -418
50 -189 166 -303 346 -341 169 -36 321 0 423 98 l44 42 -7 -70 c-15 -164 -58
-268 -140 -343 -119 -109 -302 -119 -500 -28 -43 20 -79 36 -81 36 -2 0 -4
-69 -4 -154 l0 -153 74 -22 c113 -34 200 -44 321 -38 194 10 315 57 424 166
109 109 171 240 208 441 21 117 24 451 5 585 -51 357 -183 538 -430 591 -85
17 -249 17 -326 -2z m267 -258 c49 -20 102 -88 121 -155 21 -76 21 -217 -1
-295 -13 -47 -28 -72 -64 -108 -53 -53 -85 -63 -179 -56 -76 5 -123 41 -165
123 -26 52 -30 72 -34 163 -6 171 38 279 131 325 41 20 146 22 191 3z"/>
<path d="M3110 3975 l0 -875 170 0 170 0 0 345 0 345 72 0 c96 0 146 -24 197
-95 21 -30 96 -176 167 -325 l129 -270 188 0 c103 0 187 3 187 6 0 15 -353
705 -380 741 -17 22 -48 50 -70 61 l-40 20 37 7 c208 37 323 231 293 493 -29
255 -162 375 -455 411 -49 6 -219 11 -377 11 l-288 0 0 -875z m663 555 c64
-30 96 -85 104 -177 7 -86 -14 -167 -54 -205 -50 -48 -97 -61 -240 -66 l-133
-5 0 243 0 243 138 -5 c116 -4 144 -8 185 -28z"/>
<path d="M700 4714 c-134 -28 -237 -82 -334 -174 -135 -127 -223 -292 -268
-504 -26 -124 -31 -424 -9 -546 34 -192 116 -367 229 -490 158 -174 344 -256
602 -267 161 -7 283 17 406 77 l84 42 -45 87 c-25 47 -49 92 -54 100 -8 12
-22 8 -83 -22 -285 -141 -624 -54 -791 201 -102 157 -132 276 -132 527 1 152
4 194 23 268 52 209 168 374 312 447 171 87 392 58 484 -63 40 -52 58 -105 64
-192 l5 -80 -37 32 c-52 47 -85 61 -164 73 -149 24 -292 -34 -376 -149 -70
-98 -97 -194 -97 -341 0 -162 40 -282 127 -379 67 -75 149 -112 262 -119 111
-6 177 13 239 71 l43 40 0 -47 0 -46 116 0 116 0 -5 508 c-5 564 -6 575 -74
704 -64 123 -186 213 -331 244 -84 17 -227 17 -312 -2z m396 -725 c23 -16 51
-48 68 -79 39 -72 48 -207 20 -296 -44 -141 -184 -200 -316 -133 -73 37 -113
125 -113 249 0 105 17 168 61 218 49 58 86 73 170 70 56 -3 79 -9 110 -29z"/>
<path d="M4965 4428 c-27 -5 -88 -27 -134 -49 -148 -72 -250 -201 -303 -384
-20 -69 -23 -103 -23 -245 0 -125 5 -181 18 -230 59 -221 200 -365 417 -427
53 -14 100 -18 250 -18 195 1 270 12 428 67 l62 22 0 157 0 157 -55 -30 c-143
-77 -304 -114 -457 -105 -120 7 -179 28 -239 86 -49 48 -79 118 -79 188 l0 33
447 0 446 0 -7 137 c-4 76 -14 169 -22 208 -50 225 -207 385 -422 430 -75 16
-250 18 -327 3z m288 -276 c76 -34 137 -133 137 -224 l0 -28 -270 0 -271 0 6
38 c4 20 21 66 38 102 27 54 41 70 86 97 29 17 65 34 80 37 49 8 151 -3 194
-22z"/>
<path d="M8741 4368 c5 -24 56 -306 114 -628 58 -322 108 -597 111 -612 l6
-28 158 0 c117 0 159 3 163 13 2 6 37 156 77 332 40 176 76 323 80 327 3 5 41
-145 85 -332 l79 -340 160 0 161 0 113 628 c63 345 116 639 119 655 l5 27
-141 0 c-77 0 -141 -3 -141 -7 -2 -46 -159 -994 -163 -983 -3 8 -31 137 -62
285 -31 149 -61 291 -67 318 l-10 48 -136 -3 -137 -3 -70 -327 c-38 -180 -71
-325 -74 -323 -2 3 -38 227 -80 497 l-77 493 -141 3 -141 3 9 -43z"/>
<path d="M4906 2464 c-180 -43 -313 -187 -362 -390 -26 -103 -23 -314 5 -418
50 -189 166 -303 346 -341 169 -36 321 0 423 98 l44 42 -7 -70 c-15 -164 -58
-268 -140 -343 -119 -109 -302 -119 -500 -28 -43 20 -79 36 -81 36 -2 0 -4
-69 -4 -154 l0 -153 74 -22 c113 -34 200 -44 321 -38 194 10 315 57 424 166
109 109 171 240 208 441 21 117 24 451 5 585 -51 357 -183 538 -430 591 -85
17 -249 17 -326 -2z m267 -258 c49 -20 102 -88 121 -155 21 -76 21 -217 -1
-295 -13 -47 -28 -72 -64 -108 -53 -53 -85 -63 -179 -56 -76 5 -123 41 -165
123 -26 52 -30 72 -34 163 -6 171 38 279 131 325 41 20 146 22 191 3z"/>
<path d="M7796 2464 c-180 -43 -313 -187 -362 -390 -26 -103 -23 -314 5 -418
50 -189 166 -303 346 -341 169 -36 321 0 423 98 l44 42 -7 -70 c-15 -164 -58
-268 -140 -343 -119 -109 -302 -119 -500 -28 -43 20 -79 36 -81 36 -2 0 -4
-69 -4 -154 l0 -153 74 -22 c113 -34 200 -44 321 -38 194 10 315 57 424 166
109 109 171 240 208 441 21 117 24 451 5 585 -51 357 -183 538 -430 591 -85
17 -249 17 -326 -2z m267 -258 c49 -20 102 -88 121 -155 21 -76 21 -217 -1
-295 -13 -47 -28 -72 -64 -108 -53 -53 -85 -63 -179 -56 -76 5 -123 41 -165
123 -26 52 -30 72 -34 163 -6 171 38 279 131 325 41 20 146 22 191 3z"/>
<path d="M200 1595 l0 -875 150 0 150 0 0 638 c1 527 3 633 14 612 7 -14 118
-301 247 -637 l234 -613 183 0 182 0 0 875 0 875 -150 0 -150 0 -2 -635 -3
-636 -204 533 c-112 293 -222 579 -244 636 l-39 102 -184 0 -184 0 0 -875z"/>
<path d="M3090 1595 l0 -875 150 0 150 0 0 638 c1 527 3 633 14 612 7 -14 118
-301 247 -637 l234 -613 183 0 182 0 0 875 0 875 -150 0 -150 0 -2 -635 -3
-636 -204 533 c-112 293 -222 579 -244 636 l-39 102 -184 0 -184 0 0 -875z"/>
<path d="M9000 1595 l0 -875 540 0 540 0 0 150 0 150 -370 0 -370 0 0 725 0
725 -170 0 -170 0 0 -875z"/>
<path d="M5851 1988 c5 -24 56 -306 114 -628 58 -322 108 -597 111 -612 l6
-28 158 0 c117 0 159 3 163 13 2 6 37 156 77 332 40 176 76 323 80 327 3 5 41
-145 85 -332 l79 -340 160 0 161 0 113 628 c63 345 116 639 119 655 l5 27
-141 0 c-77 0 -141 -3 -141 -7 -2 -46 -159 -994 -163 -983 -3 8 -31 137 -62
285 -31 149 -61 291 -67 318 l-10 48 -136 -3 -137 -3 -70 -327 c-38 -180 -71
-325 -74 -323 -2 3 -38 227 -80 497 l-77 493 -141 3 -141 3 9 -43z"/>
<path d="M1500 380 l0 -110 720 0 720 0 0 110 0 110 -720 0 -720 0 0 -110z"/>
<path d="M0 10 c0 -5 5 -10 11 -10 5 0 7 5 4 10 -3 6 -8 10 -11 10 -2 0 -4 -4
-4 -10z"/>
<path d="M10225 10 c-3 -5 -1 -10 4 -10 6 0 11 5 11 10 0 6 -2 10 -4 10 -3 0
-8 -4 -11 -10z"/>
</g>
</svg>
